{
  "asset": {
    "generator": "glTF-Transform v4.0.2",
    "version": "2.0"
  },
  "accessors": [
    {
      "type": "VEC3",
      "componentType": 5126,
      "count": 1920,
      "max": [3.43500018119812, 0.07999999821186066, 0.009000000543892384],
      "min": [0, -0.07999999821186066, -0.6820000410079956],
      "bufferView": 0,
      "byteOffset": 0
    },
    {
      "type": "VEC3",
      "componentType": 5126,
      "count": 1920,
      "bufferView": 0,
      "byteOffset": 12
    },
    {
      "type": "VEC2",
      "componentType": 5126,
      "count": 1920,
      "bufferView": 0,
      "byteOffset": 24
    },
    {
      "type": "SCALAR",
      "componentType": 5123,
      "count": 5640,
      "bufferView": 1,
      "byteOffset": 0
    }
  ],
  "bufferViews": [
    {
      "buffer": 0,
      "byteOffset": 0,
      "byteLength": 61440,
      "byteStride": 32,
      "target": 34962
    },
    {
      "buffer": 0,
      "byteOffset": 61440,
      "byteLength": 11280,
      "target": 34963
    }
  ],
  "samplers": [
    {
      "magFilter": 9729,
      "minFilter": 9987,
      "wrapS": 10497,
      "wrapT": 10497
    }
  ],
  "textures": [
    {
      "source": 0,
      "sampler": 0
    }
  ],
  "images": [
    {
      "name": "sdfghjhdfghsd",
      "mimeType": "image/png",
      "uri": "https://github.com/kaineko-moka/hello/raw/main/baseColor.png"
    }
  ],
  "buffers": [
    {
      "uri": "https://github.com/kaineko-moka/hello/raw/main/youtube.bin",
      "byteLength": 72720
    }
  ],
  "materials": [
    {
      "name": "マテリアル",
      "doubleSided": true,
      "pbrMetallicRoughness": {
        "roughnessFactor": 0.5,
        "metallicFactor": 0,
        "baseColorTexture": {
          "index": 0
        }
      }
    }
  ],
  "meshes": [
    {
      "name": "テキスト",
      "primitives": [
        {
          "attributes": {
            "POSITION": 0,
            "NORMAL": 1,
            "TEXCOORD_0": 2
          },
          "mode": 4,
          "material": 0,
          "indices": 3
        }
      ]
    }
  ],
  "nodes": [
    {
      "name": "head"
    },
    {
      "name": "Node_2",
      "children": [0]
    },
    {
      "name": "blockbench_export",
      "children": [1]
    },
    {
      "name": "テキスト",
      "translation": [0.6048443913459778, 2.631418466567993, 0],
      "rotation": [0, -0.7071068286895752, 0.7071068286895752, 1.1520233300643667e-7],
      "scale": [0.3900994658470154, 1, 0.3900994658470154],
      "mesh": 0
    }
  ],
  "scenes": [
    {
      "name": "Scene",
      "nodes": [2, 3]
    }
  ],
  "scene": 0
}
